<?xml version="1.0" encoding="UTF-8" standalone="no"?>
<!-- Created with Inkscape (http://www.inkscape.org/) -->

<svg
   width="120.01236mm"
   height="152.03357mm"
   viewBox="0 0 120.01236 152.03357"
   version="1.1"
   id="svg1"
   inkscape:version="1.3.2 (091e20e, 2023-11-25, custom)"
   sodipodi:docname="logo_paw.svg"
   xmlns:inkscape="http://www.inkscape.org/namespaces/inkscape"
   xmlns:sodipodi="http://sodipodi.sourceforge.net/DTD/sodipodi-0.dtd"
   xmlns="http://www.w3.org/2000/svg"
   xmlns:svg="http://www.w3.org/2000/svg">
  <sodipodi:namedview
     id="namedview1"
     pagecolor="#505050"
     bordercolor="#eeeeee"
     borderopacity="1"
     inkscape:showpageshadow="0"
     inkscape:pageopacity="0"
     inkscape:pagecheckerboard="0"
     inkscape:deskcolor="#505050"
     inkscape:document-units="mm"
     inkscape:zoom="0.51045875"
     inkscape:cx="172.39395"
     inkscape:cy="546.56718"
     inkscape:window-width="2560"
     inkscape:window-height="1369"
     inkscape:window-x="-8"
     inkscape:window-y="-8"
     inkscape:window-maximized="1"
     inkscape:current-layer="layer1" />
  <defs
     id="defs1" />
  <g
     inkscape:label="Warstwa 1"
     inkscape:groupmode="layer"
     id="layer1"
     transform="translate(-39.158322,-33.072913)">
    <path
       id="path21"
       style="stroke-width:1.06357"
       d="m 84.71055,33.07303 c -0.25629,-0.006 -0.57054,0.21967 -1.03154,0.67455 -1.73574,1.99807 -2.53009,3.5949 -3.74944,5.99348 -1.49345,3.97321 -4.19534,15.42868 -1.03809,16.25134 3.55163,-2.26008 7.47353,-0.78878 9.20162,-0.71237 2.57559,-1.02897 1.59699,-9.26989 -1.90186,-19.54835 -0.70932,-1.77553 -0.99104,-2.65865 -1.48069,-2.65865 z m 28.90792,0 c -0.48965,0.0159 -0.77138,0.88312 -1.48069,2.65865 -3.49853,10.27846 -4.47745,18.51938 -1.90186,19.54835 1.72809,-0.0764 5.65126,-1.54771 9.20328,0.71237 3.15692,-0.82266 0.45532,-12.27813 -1.03813,-16.25134 -1.21935,-2.39858 -2.01565,-3.99541 -3.75106,-5.99348 -0.46132,-0.45494 -0.77367,-0.67455 -1.03154,-0.67455 z m 27.93722,25.62902 c -0.75103,0.0159 -1.22324,0.82435 -1.15001,3.5553 3.00092,11.19212 -1.28916,19.53902 1.33099,19.75233 1.76885,-0.59598 6.53967,-1.43778 8.72781,1.26515 5.99834,-1.16904 1.435,-15.59531 -2.05653,-19.2275 -1.75095,-1.95986 -2.89961,-3.26908 -5.10176,-4.6839 -0.62145,-0.32983 -1.20215,-0.62792 -1.67811,-0.65975 h -0.0723 z m -84.85475,0.002 c -0.47596,0.0191 -1.05666,0.33155 -1.67812,0.66138 -2.20214,1.41482 -3.35077,2.72404 -5.10179,4.6839 -3.49121,3.63225 -8.05515,18.05716 -2.05649,19.22588 2.18813,-2.70261 6.95895,-1.85952 8.7278,-1.26353 2.62048,-0.21299 -1.67028,-8.56015 1.33097,-19.75233 0.0732,-2.73095 -0.39733,-3.52346 -1.14836,-3.5553 z m 26.85961,1.07927 c -1.51798,0.003 -2.98466,0.59276 -4.05214,2.36416 -2.86562,3.74813 -12.00202,8.48065 -12.10708,21.01914 -1.02354,4.35971 3.28052,6.84826 5.0656,10.22167 2.33522,2.75451 4.18522,11.2228 12.74705,4.90927 6.6752,-5.41216 8.85805,-1.63366 11.06401,-7.78673 1.09104,-5.69717 3.29805,-13.56182 -3.4319,-24.53496 l -3.39242,-4.30222 c -1.34796,-0.64756 -3.67506,-1.89033 -5.89312,-1.89033 z m 31.20789,0 c -2.218,-0.006 -4.54351,1.24277 -5.89147,1.89033 l -3.39242,4.30222 c -6.73021,10.97314 -4.52457,18.83779 -3.43352,24.53496 2.20596,6.15307 4.3905,2.37457 11.06563,7.78673 8.56183,6.31354 10.41151,-2.15476 12.74705,-4.90927 1.78476,-3.37341 6.08914,-5.86196 5.06559,-10.22167 -0.10378,-12.53849 -9.24314,-17.27101 -12.10869,-21.01914 -1.06748,-1.7714 -2.53452,-2.36416 -4.05217,-2.36416 z M 146.40412,86.179 c -2.31357,0.0433 -4.03902,2.28403 -5.6299,3.78067 -4.94455,3.06109 -9.73295,6.57032 -13.4989,11.05579 -1.83984,2.33363 -4.01935,5.29434 -3.1292,8.43663 2.50141,4.98307 4.56487,10.16468 6.58905,15.35469 0.97706,1.92962 1.40495,4.39292 3.35621,5.61507 2.53357,1.1493 5.20702,-0.34763 7.66831,-1.02002 2.05092,-0.83635 4.35981,-0.61884 6.36202,-1.57776 7.84615,-3.67071 12.35444,-12.9829 10.71358,-21.44031 -0.73224,-5.35206 -4.00527,-9.79968 -5.87504,-14.75091 -1.40655,-2.10505 -3.0007,-4.50967 -5.5279,-5.32883 -0.35593,-0.0891 -0.69776,-0.12321 -1.02823,-0.12321 z m -94.47757,0.002 c -0.33078,-0.006 -0.67398,0.0328 -1.02991,0.12512 -2.5272,0.81916 -4.12139,3.22213 -5.52787,5.32716 -1.86945,4.95125 -5.14312,9.39886 -5.87504,14.75092 -1.64119,8.45741 2.86908,17.7712 10.71523,21.44197 2.00221,0.95892 4.30912,0.73975 6.36036,1.5761 2.4613,0.67239 5.13637,2.16932 7.66993,1.02002 1.95127,-1.22215 2.37948,-3.68386 3.35622,-5.61341 2.02418,-5.19001 4.08764,-10.37166 6.58905,-15.35473 0.89015,-3.14228 -1.29098,-6.10462 -3.13082,-8.43825 -3.76628,-4.48546 -8.55276,-7.99272 -13.49725,-11.05414 -1.59119,-1.49664 -3.31633,-3.73609 -5.6299,-3.78066 z m 47.21244,20.74767 c -0.50365,3.5e-4 -1.0076,0.0223 -1.5103,0.0707 -7.70059,1.69021 -14.70933,6.91766 -17.46384,14.45149 -2.59851,5.8207 -3.26715,13.56745 -9.54056,16.76959 -6.56052,3.25275 -14.88539,4.69486 -18.82773,11.57731 -3.64148,6.64686 -2.7321,14.76836 -0.79133,21.78415 3.61855,9.25906 14.01453,13.67592 23.42609,13.45943 4.49247,0.48264 8.4136,-1.80539 12.18274,-3.92381 3.76946,-2.03627 8.23777,-3.07513 12.56278,-2.7886 4.32533,-0.28685 8.79205,0.75233 12.56113,2.7886 3.76946,2.11842 7.69225,4.40645 12.1844,3.92381 9.41156,0.21522 19.80588,-4.20037 23.42444,-13.45943 1.94108,-7.01579 2.85173,-15.13729 -0.78968,-21.78415 -3.94233,-6.88245 -12.2688,-8.32456 -18.82938,-11.57731 -6.27342,-3.20214 -6.9404,-10.94889 -9.53891,-16.76959 -2.75451,-7.53383 -9.76453,-12.76128 -17.4655,-14.45149 -0.50652,-0.0382 -1.01301,-0.0707 -1.52017,-0.0707 h -0.0328 -0.0191 z m -27.54566,10.91428 -0.16109,0.40146 c 0.0191,-0.0372 0.0478,-0.0691 0.0478,-0.10538 0.0478,-0.11143 0.0786,-0.20057 0.11365,-0.29608 z m 55.14235,0 c 0.035,0.0955 0.0675,0.18465 0.11525,0.29608 0.006,0.0127 0.0128,0.0255 0.0223,0.0395 z m 0.13658,0.33562 0.0328,0.0806 c 0,-0.0287 -0.0159,-0.0541 -0.0328,-0.0806 z" />
  </g>
</svg>
