<?xml version="1.0" encoding="UTF-8" standalone="no"?>
<!-- Created with Inkscape (http://www.inkscape.org/) -->

<svg
   width="15.037701mm"
   height="19.050043mm"
   viewBox="0 0 15.037701 19.050043"
   version="1.1"
   id="svg1"
   inkscape:version="1.3.2 (091e20e, 2023-11-25, custom)"
   sodipodi:docname="logo_paw_heading.svg"
   xmlns:inkscape="http://www.inkscape.org/namespaces/inkscape"
   xmlns:sodipodi="http://sodipodi.sourceforge.net/DTD/sodipodi-0.dtd"
   xmlns="http://www.w3.org/2000/svg"
   xmlns:svg="http://www.w3.org/2000/svg">
  <sodipodi:namedview
     id="namedview1"
     pagecolor="#505050"
     bordercolor="#eeeeee"
     borderopacity="1"
     inkscape:showpageshadow="0"
     inkscape:pageopacity="0"
     inkscape:pagecheckerboard="0"
     inkscape:deskcolor="#505050"
     inkscape:document-units="mm"
     inkscape:zoom="5.7751815"
     inkscape:cx="22.68327"
     inkscape:cy="54.54374"
     inkscape:window-width="2560"
     inkscape:window-height="1369"
     inkscape:window-x="-8"
     inkscape:window-y="-8"
     inkscape:window-maximized="1"
     inkscape:current-layer="layer1" />
  <defs
     id="defs1" />
  <g
     inkscape:label="Warstwa 1"
     inkscape:groupmode="layer"
     id="layer1"
     transform="translate(-39.158322,-33.072913)">
    <path
       id="path21"
       style="stroke-width:0.133267;fill:#dcd7c9;fill-opacity:1"
       d="m 44.866074,33.072928 c -0.03211,-7.52e-4 -0.07149,0.02753 -0.129253,0.08452 -0.217491,0.250361 -0.317024,0.450446 -0.46981,0.750991 -0.187131,0.497848 -0.525681,1.933233 -0.130074,2.036313 0.445024,-0.283191 0.936443,-0.09884 1.152975,-0.08926 0.322724,-0.128931 0.200105,-1.161529 -0.238306,-2.449433 -0.08888,-0.222476 -0.124178,-0.333132 -0.185532,-0.333132 z m 3.622199,0 c -0.06135,0.002 -0.09665,0.110656 -0.185532,0.333132 -0.438371,1.287904 -0.56103,2.320502 -0.238306,2.449433 0.216532,-0.0096 0.70811,-0.19393 1.153183,0.08926 0.395566,-0.10308 0.05705,-1.538465 -0.130079,-2.036313 -0.152786,-0.300545 -0.252564,-0.50063 -0.470013,-0.750991 -0.0578,-0.057 -0.09694,-0.08452 -0.129253,-0.08452 z m 3.500569,3.211349 c -0.0941,0.002 -0.153273,0.103292 -0.144097,0.445483 0.376019,1.402387 -0.161534,2.448264 0.166774,2.474993 0.221639,-0.07468 0.819429,-0.180156 1.093606,0.158524 0.7516,-0.146482 0.179807,-1.954112 -0.257686,-2.40923 -0.219396,-0.245573 -0.363325,-0.40962 -0.639257,-0.586898 -0.07787,-0.04133 -0.150631,-0.07868 -0.210269,-0.08267 h -0.0091 z m -10.632408,2.5e-4 c -0.05964,0.0024 -0.132401,0.04154 -0.21027,0.08287 -0.275931,0.177279 -0.419856,0.341326 -0.639261,0.586899 -0.437453,0.455125 -1.009321,2.262585 -0.257681,2.409027 0.274176,-0.33864 0.871965,-0.233 1.093604,-0.158322 0.32835,-0.02669 -0.209288,-1.072598 0.166773,-2.474992 0.0092,-0.342191 -0.04979,-0.441494 -0.143891,-0.445484 z m 3.365543,0.135234 c -0.190204,3.76e-4 -0.373981,0.07427 -0.507738,0.296233 -0.359066,0.469645 -1.503868,1.062636 -1.517032,2.633725 -0.128251,0.546277 0.411053,0.858095 0.634726,1.280788 0.292606,0.345143 0.524413,1.406231 1.597221,0.615138 0.836411,-0.678151 1.109925,-0.2047 1.386335,-0.975688 0.136709,-0.713862 0.41325,-1.699313 -0.430022,-3.074261 l -0.425074,-0.539074 c -0.168901,-0.08114 -0.46049,-0.236861 -0.738416,-0.236861 z m 3.910389,0 c -0.277918,-7.51e-4 -0.569308,0.155721 -0.738209,0.236861 l -0.425074,0.539074 c -0.843304,1.374948 -0.566935,2.360399 -0.430225,3.074261 0.27641,0.770988 0.550135,0.297537 1.386538,0.975688 1.072808,0.791094 1.304575,-0.269995 1.597221,-0.615138 0.223633,-0.422693 0.762977,-0.734511 0.634725,-1.280788 -0.013,-1.571089 -1.158177,-2.16408 -1.517234,-2.633725 -0.133757,-0.221959 -0.317579,-0.296233 -0.507742,-0.296233 z m 3.963991,3.307413 c -0.289894,0.0054 -0.506095,0.286191 -0.705434,0.473722 -0.619558,0.383559 -1.219551,0.82327 -1.691429,1.385305 -0.230535,0.292407 -0.50363,0.663387 -0.392093,1.05712 0.31343,0.624385 0.571984,1.273648 0.825616,1.923963 0.122427,0.241783 0.176042,0.550438 0.420538,0.703575 0.317459,0.144009 0.652446,-0.04356 0.960849,-0.12781 0.256983,-0.104796 0.546289,-0.07754 0.797169,-0.197695 0.983132,-0.459945 1.548027,-1.626774 1.342425,-2.686498 -0.09175,-0.67062 -0.501865,-1.227913 -0.73615,-1.848308 -0.176242,-0.263766 -0.375991,-0.565067 -0.692653,-0.667709 -0.0446,-0.01116 -0.08743,-0.01544 -0.128838,-0.01544 z m -11.83816,2.5e-4 c -0.04145,-7.52e-4 -0.08445,0.0041 -0.129049,0.01568 -0.316661,0.102642 -0.516415,0.403737 -0.692649,0.6675 -0.234245,0.620398 -0.64444,1.177689 -0.73615,1.848309 -0.205643,1.059724 0.359499,2.226754 1.342632,2.686706 0.250879,0.120154 0.539938,0.09269 0.796961,0.197487 0.308404,0.08425 0.643594,0.271819 0.961052,0.12781 0.244497,-0.153137 0.298152,-0.461592 0.420539,-0.703367 0.253632,-0.650315 0.512186,-1.299583 0.825616,-1.923968 C 43.658686,42.24985 43.385388,41.878665 43.154853,41.586258 42.682934,41.024224 42.083182,40.58476 41.463631,40.20116 41.264253,40.013629 41.04809,39.733023 40.758197,39.727439 Z m 5.915779,2.59971 c -0.06311,4.3e-5 -0.126254,0.0028 -0.189243,0.0089 -0.964893,0.211786 -1.843097,0.866792 -2.188241,1.81079 -0.325597,0.729342 -0.409378,1.700019 -1.195444,2.101251 -0.822042,0.407574 -1.865159,0.588272 -2.359139,1.450652 -0.456282,0.83286 -0.342335,1.850494 -0.09916,2.729582 0.453409,1.160172 1.756039,1.71361 2.935319,1.686483 0.562913,0.06048 1.054235,-0.226217 1.526513,-0.491658 0.472318,-0.255147 1.032203,-0.385318 1.574132,-0.349415 0.54197,-0.03594 1.101655,0.09427 1.573926,0.349415 0.472318,0.265441 0.963849,0.552134 1.526721,0.491658 1.17928,0.02697 2.481702,-0.526311 2.935112,-1.686483 0.24322,-0.879088 0.357325,-1.896722 -0.09895,-2.729582 -0.493979,-0.86238 -1.537296,-1.043078 -2.359345,-1.450652 -0.786068,-0.401232 -0.869641,-1.371909 -1.195238,-2.101251 -0.345143,-0.943998 -1.223508,-1.599004 -2.188449,-1.81079 -0.06347,-0.0048 -0.126932,-0.0089 -0.190479,-0.0089 h -0.0041 -0.0024 z m -3.451506,1.367573 -0.02018,0.0503 c 0.0024,-0.0047 0.006,-0.0087 0.006,-0.0132 0.006,-0.01396 0.0098,-0.02513 0.01424,-0.0371 z m 6.909406,0 c 0.0044,0.01197 0.0085,0.02314 0.01444,0.0371 7.52e-4,0.0016 0.0016,0.0032 0.0028,0.0049 z m 0.01711,0.04205 0.0041,0.0101 c 0,-0.0036 -0.002,-0.0068 -0.0041,-0.0101 z" />
  </g>
</svg>
