<?xml version="1.0" encoding="UTF-8" standalone="no"?>
<!-- Created with Inkscape (http://www.inkscape.org/) -->

<svg
   width="160.88475mm"
   height="16.323038mm"
   viewBox="0 0 160.88475 16.323038"
   version="1.1"
   id="svg1"
   inkscape:version="1.3.2 (091e20e, 2023-11-25, custom)"
   sodipodi:docname="logo_text.svg"
   xmlns:inkscape="http://www.inkscape.org/namespaces/inkscape"
   xmlns:sodipodi="http://sodipodi.sourceforge.net/DTD/sodipodi-0.dtd"
   xmlns="http://www.w3.org/2000/svg"
   xmlns:svg="http://www.w3.org/2000/svg">
  <sodipodi:namedview
     id="namedview1"
     pagecolor="#505050"
     bordercolor="#eeeeee"
     borderopacity="1"
     inkscape:showpageshadow="0"
     inkscape:pageopacity="0"
     inkscape:pagecheckerboard="0"
     inkscape:deskcolor="#505050"
     inkscape:document-units="mm"
     inkscape:zoom="1.0209175"
     inkscape:cx="304.13819"
     inkscape:cy="157.70128"
     inkscape:window-width="2560"
     inkscape:window-height="1369"
     inkscape:window-x="-8"
     inkscape:window-y="-8"
     inkscape:window-maximized="1"
     inkscape:current-layer="layer1" />
  <defs
     id="defs1">
    <inkscape:path-effect
       overflow_perspective="false"
       vertical_mirror="false"
       horizontal_mirror="false"
       deform_type="perspective"
       lpeversion="1"
       is_visible="true"
       id="path-effect1221-9"
       down_right_point="-4092.3038,2846.8753"
       down_left_point="-4180.5553,2846.8753"
       up_right_point="-4092.3038,2752.2622"
       up_left_point="-4180.5553,2752.2622"
       effect="perspective-envelope" />
  </defs>
  <g
     inkscape:label="Warstwa 1"
     inkscape:groupmode="layer"
     id="layer1"
     transform="translate(-34.804594,-89.538721)">
    <path
       id="path860"
       style="font-style:normal;font-variant:normal;font-weight:normal;font-stretch:normal;font-size:135.355px;line-height:1.25;font-family:ChunkFive;-inkscape-font-specification:'ChunkFive, Normal';font-variant-ligatures:normal;font-variant-caps:normal;font-variant-numeric:normal;font-variant-east-asian:normal;fill:#000000;fill-opacity:1;stroke:none;stroke-width:0.554448"
       d="m 59.39069,89.538721 c -4.590779,0 -7.784538,3.304737 -7.784538,8.095113 0,5.544426 3.304435,8.227926 7.939567,8.227926 5.012154,0 7.806759,-3.06075 7.806759,-8.072897 0,-4.989975 -2.528259,-8.250142 -7.961788,-8.250142 z m 127.22789,0.04444 c -2.17341,0 -5.27823,1.485896 -5.27823,4.768185 0,5.655304 8.51628,4.92348 8.51628,6.653344 0,0.93146 -1.10894,1.10897 -1.88516,1.10897 -0.93146,-0.0443 -2.79466,-0.35502 -2.79466,-2.21795 H 181.052 v 5.58881 h 3.8809 l 0.24391,-1.70739 c 0.84275,0.998 2.39542,2.04018 4.63538,2.04018 2.63913,0 5.87716,-1.24179 5.87716,-4.70152 0,-5.211745 -8.78241,-4.679609 -8.78241,-6.963915 0,-0.776214 0.887,-1.175639 1.53014,-1.175639 1.55244,0 2.83858,0.931817 2.83858,2.57297 h 4.01423 V 89.98262 h -3.81424 l -0.22221,1.862936 c -0.88711,-1.663322 -2.77192,-2.262395 -4.63486,-2.262395 z M 34.804594,89.9604 v 2.92747 h 1.22008 v 9.64696 h -1.22008 v 2.92747 h 7.185608 v -2.92747 h -1.37511 v -3.348636 h 4.214213 v 3.348636 h -1.308447 v 2.92747 h 7.207312 v -2.92747 H 49.441943 V 92.88787 H 50.72817 V 89.9604 h -7.207312 v 2.92747 h 1.308447 v 3.348633 H 40.615092 V 92.88787 h 1.37511 V 89.9604 Z m 33.218127,0 v 2.883029 h 1.241785 v 5.411039 c 0,5.256112 2.439929,7.585062 6.831108,7.585062 4.391177,0 6.409428,-2.32896 6.409428,-7.585062 v -5.43326 h 1.197342 V 89.9604 h -6.564457 v 2.92747 h 1.197343 v 4.701522 c 0,3.637138 -0.864641,4.347018 -2.239656,4.347018 -1.375016,0 -2.217953,-0.70988 -2.217953,-4.347018 v -4.768184 h 1.19786 V 89.9604 Z m 16.574182,0 v 2.860808 h 1.286227 v 9.780282 h -1.308447 v 2.86081 h 6.80837 v -2.86081 h -1.70739 v -5.588807 l 5.654952,8.449617 H 100.0988 V 92.821208 h 1.46399 V 89.9604 h -6.675559 v 2.860808 h 1.507919 l 0.02222,5.27823 -5.45548,-8.139038 z m 18.083647,0 v 2.92747 h 1.37511 v 9.62474 h -1.37511 v 2.94969 h 6.67557 c 5.4557,0 8.51627,-2.90529 8.51627,-7.961791 0,-4.235936 -3.0604,-7.540109 -8.42739,-7.540109 z m 22.10408,0.02222 v 2.860808 h 1.28623 v 9.758062 h -1.28623 v 2.88303 h 8.42739 c 4.28029,0 6.03271,-1.37501 6.03271,-4.50205 0,-2.151249 -1.33067,-3.326763 -2.92747,-3.770317 1.66332,-0.665322 2.17299,-1.574595 2.17299,-3.437516 0,-2.417367 -1.75177,-3.792017 -5.43326,-3.792017 z m 15.24713,0 v 2.926953 h 1.39733 v 9.625257 h -1.39733 v 2.94969 h 7.36286 v -2.94969 h -1.37459 v -9.625257 h 1.37459 V 89.98262 Z m 8.48992,0 v 2.860808 h 1.19786 v 9.758062 h -1.19786 v 2.88303 h 6.98614 v -2.88303 h -1.19786 v -2.37298 l 1.64124,-1.397334 2.39521,3.770314 h -1.50792 v 2.88303 h 8.64908 v -2.88303 h -1.28622 l -4.47983,-6.986139 3.21582,-2.771923 h 1.28623 V 89.98262 h -7.38508 v 2.860808 h 1.5968 l -4.12533,3.614766 v -3.614766 h 1.19786 V 89.98262 Z m 18.06298,0 v 2.926953 h 1.39682 v 9.625257 h -1.39682 v 2.94969 h 13.37283 v -5.0121 h -3.83646 v 2.06241 h -3.54862 v -3.614771 h 4.2137 v -2.949691 h -4.2137 v -3.060795 h 3.54862 v 1.97404 h 3.83646 V 89.98262 Z m -57.9825,2.905249 h 0.84284 c 2.35083,0 3.32641,2.23963 3.32641,4.612639 0,2.772212 -0.97558,4.967752 -3.32641,5.012102 h -0.84284 z m 22.05963,0.02222 h 1.39733 c 0.84276,0 1.46348,0.598322 1.46348,1.618506 0,1.064522 -0.3325,1.707906 -1.50792,1.707906 h -1.35289 z m -71.293321,0.04393 c 1.707683,0 2.439128,2.151346 2.439128,4.834847 0,2.750034 -0.864683,4.590934 -2.261878,4.590934 -1.41937,0 -2.461865,-1.84069 -2.461865,-4.745963 0,-2.750028 0.931779,-4.701997 2.284615,-4.679818 z m 71.293321,5.788794 h 1.70791 c 1.21977,0 1.86293,0.820242 1.86293,1.951297 0,1.1976 -0.86533,1.90738 -1.79679,1.90738 h -1.77405 z" />
  </g>
</svg>
